<svg width="161" height="32" viewBox="0 0 161 32" fill="none" xmlns="http://www.w3.org/2000/svg">
<path d="M12.6775 0.0914803H0V31.9605H5.08041V4.73588H11.9901C15.1941 4.73588 17.1152 5.87415 17.1152 9.10626C17.1152 12.3384 15.1918 13.4766 11.9901 13.4766L5.08512 13.4602L8.07263 18.1655H12.4491C18.2617 18.1655 22.3792 14.8397 22.3792 9.05941C22.3792 3.64446 18.6266 0.0914803 12.6775 0.0914803Z" fill="white"/>
<path d="M90.6778 0.0914803L83.7682 30.8246L76.8585 0.0914803H67.3381V31.9629H72.3267V1.22975L78.9161 31.9629H88.6179L95.2097 1.22975V31.9629H100.196V0.0914803H90.6778Z" fill="white"/>
<path d="M118.759 1.22975L123.931 19.3951H113.589L118.761 1.22975H118.759ZM113.954 0.0914803L104.664 31.9605H110.018L111.908 25.2598H111.903L112.16 24.3698L112.214 24.1754L113.587 19.3975L116.522 24.1754H125.301L127.498 31.9605H132.851L123.656 0.0914803H113.954Z" fill="white"/>
<path d="M55.6398 6.94172L55.6163 31.9625H60.7861L60.7885 6.94172H55.6398Z" fill="white"/>
<path d="M55.6163 0.0914803L55.6398 6.94215L60.7861 0.0914803H55.6163Z" fill="#F68522"/>
<path d="M43.9793 31.9629H49.7448L41.2272 18.0742C41.837 18.0578 42.4797 17.9828 42.4797 17.9828C47.2258 17.2193 49.7966 14.0621 49.7966 9.06174C49.7966 3.64444 46.044 0.0938072 40.0948 0.0938072H27.189V31.9629H32.2906L32.2694 4.73821H39.4074C42.6115 4.73821 44.5325 5.87647 44.5325 9.10858C44.5325 12.3407 42.6115 13.479 39.4074 13.479H32.2882L43.9746 31.9629H43.9793Z" fill="white"/>
<path d="M141.788 20.643L134.742 31.9998H140.479L147.448 20.6383L141.788 20.643Z" fill="white"/>
<path d="M154.489 0L147.436 11.3663L140.385 0H134.646L154.489 31.9838H160.227L150.306 15.9919L160.227 0H154.489Z" fill="white"/>
</svg>
